PathFileType	4	(X/Y/Z)	jog.trc
DataRate	CameraRate	NumFrames	NumMarkers	Units	OrigDataRate	OrigDataStartFrame	OrigNumFrames
250.000000	250.000000	4	51	mm	250.000000	627	837
Frame#	Time	C7			RSH			LSH			MAN			T7			LARM			LELB			LFOREARM			LWR			RARM			RELB			RFOREARM			RWR			RASI			LASI			SACR			P1			P2			P3			LTHLP			LTHLD			LTHAP			LTHAD			LLEPI			LPAT			LTIAP			LTIAD			LTILAT			LLMAL			LHEEL			LMFS			LMFL			LP1MT			LTOE			LP5MT			RTHLP			RTHLD			RTHAP			RTHAD			RLEPI			RPAT			RTIAP			RTIAD			RTILAT			RLMAL			RHEEL			RMFS			RMFL			RP1MT			RTOE			RP5MT			
		X1	Y1	Z1	X2	Y2	Z2	X3	Y3	Z3	X4	Y4	Z4	X5	Y5	Z5	X6	Y6	Z6	X7	Y7	Z7	X8	Y8	Z8	X9	Y9	Z9	X10	Y10	Z10	X11	Y11	Z11	X12	Y12	Z12	X13	Y13	Z13	X14	Y14	Z14	X15	Y15	Z15	X16	Y16	Z16	X17	Y17	Z17	X18	Y18	Z18	X19	Y19	Z19	X20	Y20	Z20	X21	Y21	Z21	X22	Y22	Z22	X23	Y23	Z23	X24	Y24	Z24	X25	Y25	Z25	X26	Y26	Z26	X27	Y27	Z27	X28	Y28	Z28	X29	Y29	Z29	X30	Y30	Z30	X31	Y31	Z31	X32	Y32	Z32	X33	Y33	Z33	X34	Y34	Z34	X35	Y35	Z35	X36	Y36	Z36	X37	Y37	Z37	X38	Y38	Z38	X39	Y39	Z39	X40	Y40	Z40	X41	Y41	Z41	X42	Y42	Z42	X43	Y43	Z43	X44	Y44	Z44	X45	Y45	Z45	X46	Y46	Z46	X47	Y47	Z47	X48	Y48	Z48	X49	Y49	Z49	X50	Y50	Z50	X51	Y51	Z51	

628	2.508	3436.967773437502	1460.10986328125	241.5829620361329	3476.404541015627	1428.612426757813	411.8455200195315	3457.452880859377	1438.851928710938	72.59232330322268	3570.566406250002	1343.91796875	239.6432037353517	3347.357421875002	1282.423583984375	239.5839080810548	3384.112792968752	1254.7255859375	-15.21858787536622	3329.671142578127	1130.81201171875	-47.1798439025879	3411.889648437502	1010.172790527344	-31.98460769653322	3469.753906250002	894.3280639648442	-18.45453834533692	3423.389404296877	1256.456909179688	511.9307861328127	3375.155761718752	1137.8134765625	567.2069091796877	3484.099609375002	1045.496826171875	547.4778442382815	3575.376220703127	957.1763305664067	528.8781738281252	3517.261474609377	998.6900024414067	328.8129882812501	3504.287353515627	973.731323242188	113.0335922241212	3325.990966796877	1017.009704589844	234.7318420410157	3312.628906250002	983.6811523437505	186.0229644775391	3312.638916015627	994.3187866210942	291.049285888672	3287.211181640627	931.6915893554692	243.6930084228517	3491.659667968752	670.497741699219	54.57183074951175	3536.190917968752	565.6210937500002	69.45300292968753	3611.972412109377	703.558776855469	140.2658843994141	3641.825683593752	592.0006103515627	143.4446411132813	3564.742675781252	472.9775390625002	96.15255737304693	3644.606933593752	437.9115295410159	162.8098449707032	3416.530761718752	425.8974914550784	177.6704864501954	3279.687255859377	434.0443420410159	170.6246185302735	3350.781005859377	461.8390808105471	92.35211181640628	3133.550781250002	462.5323181152346	111.5737686157227	3109.117187500002	532.091735839844	157.0400543212891	3114.136230468752	363.1438293457032	169.9541320800782	3092.414794921877	395.2021789550784	105.717140197754	3055.033935546876	315.7731018066407	209.4645385742189	3061.814941406251	276.3037719726564	169.8922424316407	3035.999755859376	335.309783935547	85.75164031982425	3486.680664062502	722.2991943359377	425.7224731445315	3528.408447265627	618.8446044921877	407.3425598144534	3611.458740234377	733.0500488281252	351.9136047363282	3628.956542968752	637.404724121094	337.9732055664064	3558.197509765627	473.0587158203127	372.4608764648439	3644.200927734377	484.2923889160159	321.9908447265626	3494.101074218752	281.7288208007814	265.6556396484376	3424.319824218752	178.1240386962891	241.8151092529298	3460.760009765627	273.4962463378907	347.9104614257814	3352.567626953127	77.26086425781253	291.7207641601564	3275.211425781252	55.165397644043	244.4719238281251	3449.944580078127	67.762809753418	244.5944976806642	3404.819091796877	40.85189819335939	298.9165649414064	3503.587158203127	23.62479400634766	204.5453186035157	3544.843505859377	25.94870567321779	242.4987030029298	3471.012207031252	11.34627151489258	330.3593139648439	
629	2.512	3450.343994140627	1459.620239257813	242.1396331787111	3490.991210937502	1428.318115234375	412.1303710937502	3470.623779296877	1438.449462890625	72.83123016357425	3583.916259765627	1343.250244140625	239.5809936523439	3360.733154296877	1282.123657226563	240.2630920410157	3395.868164062502	1254.909790039063	-14.78696060180665	3339.929199218752	1131.57080078125	-46.79969406127931	3419.369384765627	1008.729919433594	-32.70088195800783	3473.524169921877	890.9170532226567	-20.16666221618653	3440.364501953127	1255.463623046875	512.2915649414065	3394.753662109377	1135.737670898438	567.5592041015627	3506.029541015627	1046.3955078125	546.2320556640627	3599.692382812502	960.9902343750005	525.9650878906252	3530.383544921877	997.7944946289067	328.4051208496095	3517.667724609377	973.9247436523442	112.6540679931641	3339.124267578127	1017.346862792969	235.1090087890626	3325.649902343752	984.147827148438	186.5650024414063	3325.785400390627	994.4398803710942	291.535614013672	3300.134277343752	932.0517578125005	243.8696746826173	3509.605957031252	671.891052246094	54.2505912780762	3556.926513671877	568.3647460937502	68.9413757324219	3628.722900390627	707.4993896484377	140.8002624511719	3661.198974609377	596.7100219726565	143.7302551269532	3587.228759765627	475.8696289062502	96.07974243164068	3667.244384765627	442.5289611816409	163.2069396972657	3441.830810546877	426.5742187500002	174.2061309814454	3302.874755859377	433.037292480469	170.9447631835938	3373.482666015627	461.1153869628909	92.2436218261719	3155.912597656252	458.4974365234377	111.6711120605469	3130.038574218752	528.177917480469	156.0696563720704	3138.275634765627	359.2871398925782	170.4463806152344	3113.995117187502	389.7614746093752	107.4407424926758	3080.557861328127	311.2960205078126	211.524383544922	3088.146484375002	271.6499938964845	172.5254821777344	3060.695556640626	329.1754760742189	87.33394622802737	3496.429199218752	720.3463134765627	425.3940124511721	3536.484863281252	616.2933349609377	407.0657043457034	3621.780029296877	728.2310180664065	352.4626464843751	3637.907714843752	632.4219970703127	338.0563964843751	3564.661132812502	469.9225769042971	372.1943359375001	3650.498046875002	479.885681152344	321.2416076660157	3497.307373046877	280.0730590820314	265.5106506347657	3425.872070312502	177.4519042968751	241.6507110595704	3463.994873046877	272.3799743652345	347.6490783691407	3353.054199218752	77.60263824462893	291.6277160644532	3275.467773437502	56.16850280761722	244.4000549316407	3450.275390625002	67.58299255371097	244.6136016845704	3404.929687500002	40.99378204345705	298.9317321777345	3503.562988281252	23.62114143371583	204.5499420166017	3544.760009765627	25.8087615966797	242.5400695800782	3470.924072265627	11.31515693664551	330.3386840820314	
630	2.516	3463.688964843752	1459.366821289063	242.6988830566407	3505.629882812502	1428.345703125	412.4191894531252	3483.788085937502	1438.24658203125	73.09385681152347	3597.406250000002	1342.935913085938	239.4839324951173	3374.121826171877	1282.004272460938	240.9311065673829	3407.570800781252	1255.453491210938	-14.40796184539796	3350.195800781252	1132.668090820313	-46.3904495239258	3426.492675781252	1007.740173339844	-33.31015014648439	3477.462890625002	888.2711791992192	-21.57649803161622	3457.206787109377	1254.838012695313	512.6084594726565	3414.177246093752	1134.127197265625	567.792907714844	3527.656005859377	1048.106689453125	544.7715454101565	3623.718505859377	965.798217773438	522.832214355469	3542.993896484377	996.7020874023442	328.0316772460939	3530.056640625002	974.173706054688	112.4118728637696	3352.336669921877	1017.871826171875	235.8144836425782	3338.865722656252	984.9313964843755	186.9081726074219	3339.105468750002	994.871704101563	292.068572998047	3313.179687500002	932.7894897460942	244.1951141357423	3527.437011718752	673.7569580078127	53.95467376708987	3577.477294921877	571.4998168945315	68.50032043457034	3645.145507812502	711.8181762695315	141.1373901367188	3680.526123046877	601.894714355469	144.1218414306641	3609.467773437502	479.2731628417971	96.15686798095709	3689.471191406252	447.7024841308596	163.5622863769532	3464.939941406252	427.8237609863284	174.4913024902344	3326.000000000002	431.8819274902346	171.2973022460938	3396.013427734377	460.5439147949221	92.25028228759768	3178.282714843752	454.2243957519534	112.0389022827149	3150.786621093752	523.7292480468752	155.4574584960938	3161.640136718752	356.5029907226564	173.8967437744141	3136.458984375002	384.1864318847659	108.420997619629	3106.241455078127	306.3427734375001	213.3524322509767	3114.779785156252	266.4173583984376	174.7994842529297	3086.076660156252	322.6997985839845	89.0014572143555	3505.797119140627	718.8111572265627	425.0745239257815	3544.044433593752	613.9956054687502	406.7775878906252	3631.714355468752	723.5427246093752	353.0936889648439	3646.125976562502	627.5735473632815	338.4148559570314	3570.994873046877	467.2454528808596	371.781463623047	3656.494384765627	475.8870849609377	320.5830383300782	3500.128417968752	278.6091308593751	265.4507751464845	3427.515136718752	176.9186096191407	241.5995025634767	3466.843261718752	271.5541381835939	347.3604431152345	3353.549316406252	78.19904327392581	291.5507202148439	3275.775634765627	57.44917297363284	244.4462280273439	3450.565917968752	67.54873657226565	244.5191650390626	3405.026855468752	41.18135452270509	298.880340576172	3503.475097656252	23.54854011535645	204.5635528564454	3544.658691406252	25.59569740295412	242.5206756591798	3470.952636718752	11.2918701171875	330.352752685547	
631	2.52	3477.111816406252	1459.413940429688	243.2501831054689	3520.295166015627	1428.722778320313	412.620056152344	3496.441162109377	1438.32763671875	73.40291595458987	3610.794677734377	1342.919067382813	239.3694152832032	3387.636474609377	1282.192504882813	241.7541656494142	3419.094482421877	1256.279296875	-14.02276992797852	3360.312255859377	1134.104736328125	-46.04209899902345	3433.908935546877	1007.483154296875	-33.96904754638673	3481.495361328127	886.4250488281255	-22.99587059020997	3473.911376953127	1254.537109375	512.8623657226565	3433.179443359377	1133.047973632813	567.8417968750002	3549.031250000002	1050.500854492188	543.2334594726565	3647.449951171877	971.4609985351567	519.4737548828127	3556.888671875002	996.1432495117192	327.8338928222657	3542.753906250002	974.801391601563	112.1637191772462	3365.637939453127	1018.776977539063	236.3713684082032	3352.182128906252	985.9785766601567	187.3766326904297	3352.523681640627	995.5620117187505	292.526824951172	3326.456298828127	933.6833496093755	244.4781188964845	3545.200927734377	676.0474853515627	53.72267532348636	3597.750976562502	575.0504150390627	68.20649719238284	3661.556884765627	716.3445434570315	141.6753845214844	3699.733642578127	607.4797973632815	144.5598907470704	3631.642822265627	482.953063964844	96.25631713867193	3711.803710937502	453.2674255371096	163.8335418701172	3487.928955078127	429.0991516113284	174.5653076171876	3348.896972656252	430.7542724609377	171.6905975341797	3418.458007812502	460.2102661132815	92.34693145751956	3200.409912109377	449.5883789062502	112.3876419067383	3171.344970703127	518.9229736328127	155.2277526855469	3186.486083984377	351.3813476562501	173.8613739013672	3158.040039062502	377.1295166015626	109.3179244995118	3132.211181640627	301.1741333007814	215.2588958740236	3141.425537109377	261.1210021972657	177.0521392822266	3111.500976562502	315.8523559570314	90.77576446533206	3515.154296875002	717.580505371094	424.6592712402346	3551.225097656252	612.0135498046877	406.3956604003909	3641.358154296877	719.1315917968752	353.939666748047	3654.052734375002	623.075378417969	338.9402770996095	3576.902587890627	464.8805847167971	371.3308105468751	3662.242187500002	472.3064270019534	319.9848632812501	3503.437500000002	276.825408935547	265.4371643066407	3429.321533203127	176.499008178711	241.3218688964845	3469.476562500002	270.9435119628907	347.0985412597657	3354.075683593752	78.83274841308597	291.4556884765626	3275.989257812502	58.88150787353518	244.2098236083986	3450.966552734377	67.50161743164065	244.4818115234376	3405.174316406252	41.37802505493165	298.7984313964845	3503.451416015627	23.53067207336426	204.5818939208986	3544.608642578127	25.43723678588869	242.5042266845704	3470.845947265627	11.24681472778321	330.2952270507814	
